<svg width="18" height="23" viewBox="0 0 18 23" fill="none" xmlns="http://www.w3.org/2000/svg">
<path d="M5.4683 7.3956L5.4663 7.3966L5.4633 7.3986L5.4683 7.3956ZM15.4224 7.2086C15.3528 7.14148 15.2756 7.08274 15.1924 7.03359C15.0745 6.96421 14.9437 6.91974 14.808 6.90293C14.6723 6.88611 14.5345 6.89731 14.4033 6.93583C14.2721 6.97435 14.1502 7.03937 14.0451 7.12688C13.94 7.21439 13.854 7.32253 13.7924 7.4446C13.4479 8.12352 12.9729 8.72775 12.3943 9.22261C12.483 8.72415 12.5279 8.21888 12.5283 7.7126C12.5303 6.17273 12.1241 4.65985 11.3512 3.328C10.5783 1.99614 9.46625 0.892885 8.12832 0.130548C7.98088 0.0467757 7.81456 0.00187188 7.645 5.72709e-05C7.47544 -0.00175734 7.3082 0.0395769 7.159 0.120174C7.0098 0.200772 6.88356 0.317985 6.79212 0.460795C6.70068 0.603605 6.64707 0.767321 6.63631 0.936553C6.58032 1.88466 6.33244 2.81153 5.9077 3.66102C5.48296 4.51051 4.89018 5.26493 4.16529 5.87859L3.93529 6.06559C3.1769 6.57584 2.50563 7.2049 1.94728 7.9286C1.07954 9.02172 0.478455 10.302 0.19168 11.6679C-0.0950954 13.0338 -0.0596664 14.4477 0.295157 15.7975C0.64998 17.1473 1.31444 18.3958 2.23582 19.4441C3.15721 20.4924 4.31019 21.3116 5.6033 21.8367C5.75512 21.8985 5.9198 21.922 6.08285 21.9052C6.2459 21.8884 6.40232 21.8318 6.53834 21.7403C6.67436 21.6488 6.78581 21.5253 6.86288 21.3807C6.93995 21.236 6.98027 21.0746 6.98031 20.9107C6.97948 20.8048 6.96262 20.6996 6.93031 20.5987C6.70657 19.7577 6.64213 18.8823 6.74031 18.0177C7.68679 19.8023 9.20587 21.2167 11.0533 22.0337C11.2787 22.1345 11.5335 22.148 11.7683 22.0717C13.2278 21.6005 14.5426 20.7641 15.5878 19.6417C16.6329 18.5193 17.3738 17.1484 17.7399 15.6591C18.1061 14.1698 18.0853 12.6116 17.6797 11.1325C17.2741 9.65352 16.497 8.30276 15.4224 7.2086ZM11.5173 20.0397C10.6456 19.598 9.87663 18.9778 9.26035 18.2193C8.64407 17.4609 8.19431 16.5813 7.94032 15.6377C7.86266 15.3199 7.80257 14.998 7.76031 14.6736C7.73186 14.4671 7.63954 14.2746 7.49628 14.1231C7.35301 13.9715 7.16597 13.8686 6.96131 13.8286C6.89838 13.8164 6.83441 13.8104 6.77031 13.8106C6.5946 13.8105 6.42196 13.8566 6.26975 13.9444C6.11755 14.0321 5.99115 14.1585 5.9033 14.3106C5.07374 15.7419 4.65667 17.3749 4.69829 19.0287C3.96845 18.4614 3.35846 17.7548 2.9037 16.95C2.44893 16.1452 2.15844 15.2582 2.04905 14.3403C1.93966 13.4224 2.01355 12.4919 2.26645 11.6028C2.51934 10.7136 2.9462 9.88354 3.52229 9.16061C3.95971 8.59244 4.48739 8.0999 5.0843 7.7026C5.11042 7.68585 5.13547 7.66748 5.1593 7.6476C5.1593 7.6476 5.4553 7.4026 5.4653 7.3976C6.89051 6.19263 7.90428 4.57305 8.36532 2.76457C9.45476 3.77194 10.1811 5.11084 10.4315 6.57336C10.682 8.03587 10.4425 9.54016 9.75033 10.8526C9.65872 11.0278 9.6211 11.2262 9.6422 11.4228C9.6633 11.6193 9.74218 11.8052 9.86889 11.9569C9.99559 12.1087 10.1644 12.2195 10.3541 12.2753C10.5437 12.3311 10.7456 12.3295 10.9343 12.2706C12.4661 11.7903 13.8139 10.8522 14.7964 9.58261C15.3871 10.4549 15.7733 11.4492 15.9262 12.4914C16.0792 13.5337 15.9949 14.5971 15.6797 15.6022C15.3645 16.6074 14.8265 17.5285 14.1058 18.2968C13.3851 19.0652 12.5003 19.6609 11.5173 20.0397Z" fill="#FF0000"/>
</svg>
