<svg width="22" height="22" viewBox="0 0 22 22" fill="none" xmlns="http://www.w3.org/2000/svg">
<path d="M20.3077 5.92455H16.5973C16.6386 5.88965 16.6809 5.8558 16.7211 5.81878C17.0423 5.53339 17.3012 5.18479 17.4815 4.79478C17.6619 4.40477 17.7598 3.98174 17.7692 3.55215C17.7831 3.08219 17.7008 2.61435 17.5274 2.17735C17.3539 1.74035 17.093 1.34341 16.7606 1.0109C16.4281 0.678394 16.0313 0.417336 15.5943 0.243752C15.1574 0.0701683 14.6896 -0.0122773 14.2196 0.00147669C13.7898 0.0107335 13.3666 0.108605 12.9764 0.288965C12.5862 0.469324 12.2374 0.728289 11.9519 1.04965C11.5568 1.50752 11.2357 2.02425 11 2.58119C10.7643 2.02425 10.4431 1.50752 10.0481 1.04965C9.76256 0.728289 9.41379 0.469324 9.02359 0.288965C8.63339 0.108605 8.21015 0.0107335 7.78038 0.00147669C7.31042 -0.0122773 6.8426 0.0701683 6.40565 0.243752C5.9687 0.417336 5.57184 0.678394 5.23943 1.0109C4.90703 1.34341 4.64609 1.74035 4.47263 2.17735C4.29918 2.61435 4.21687 3.08219 4.23077 3.55215C4.24017 3.98174 4.33811 4.40477 4.51846 4.79478C4.69882 5.18479 4.95771 5.53339 5.27894 5.81878C5.31913 5.85369 5.36144 5.88753 5.40269 5.92455H1.69231C1.24348 5.92455 0.813034 6.10285 0.495665 6.42022C0.178296 6.73759 0 7.16803 0 7.61686V11.0015C0 11.4503 0.178296 11.8807 0.495665 12.1981C0.813034 12.5155 1.24348 12.6938 1.69231 12.6938V19.463C1.69231 19.9118 1.8706 20.3423 2.18797 20.6597C2.50534 20.977 2.93579 21.1553 3.38461 21.1553H18.6154C19.0642 21.1553 19.4947 20.977 19.812 20.6597C20.1294 20.3423 20.3077 19.9118 20.3077 19.463V12.6938C20.7565 12.6938 21.187 12.5155 21.5043 12.1981C21.8217 11.8807 22 11.4503 22 11.0015V7.61686C22 7.16803 21.8217 6.73759 21.5043 6.42022C21.187 6.10285 20.7565 5.92455 20.3077 5.92455ZM13.2211 2.1708C13.3551 2.02285 13.5182 1.9042 13.7003 1.82229C13.8823 1.74039 14.0793 1.69699 14.2788 1.69484H14.3307C14.5646 1.6963 14.7959 1.74444 15.011 1.83644C15.226 1.92843 15.4206 2.06243 15.5832 2.23058C15.7459 2.39873 15.8733 2.59765 15.9581 2.81568C16.0429 3.03372 16.0833 3.26648 16.0769 3.50032C16.0748 3.69991 16.0314 3.89689 15.9495 4.07891C15.8676 4.26092 15.7489 4.42404 15.601 4.55801C14.5972 5.44648 12.9313 5.75955 11.899 5.86955C12.026 4.74946 12.375 3.12167 13.2211 2.1708ZM6.4424 2.20888C6.77023 1.88109 7.2142 1.69597 7.67779 1.69378H7.72961C7.9292 1.69594 8.12618 1.73933 8.3082 1.82124C8.49021 1.90314 8.65333 2.0218 8.7873 2.16975C9.67471 3.17244 9.98778 4.83513 10.0978 5.86321C9.06971 5.75744 7.40702 5.44013 6.40433 4.55273C6.25638 4.41875 6.13772 4.25563 6.05581 4.07362C5.97391 3.8916 5.93052 3.69462 5.92836 3.49503C5.9218 3.2573 5.96361 3.02071 6.05124 2.79963C6.13888 2.57854 6.27052 2.37756 6.43817 2.20888H6.4424ZM1.69231 7.61686H10.1538V11.0015H1.69231V7.61686ZM3.38461 12.6938H10.1538V19.463H3.38461V12.6938ZM18.6154 19.463H11.8461V12.6938H18.6154V19.463ZM20.3077 11.0015H11.8461V7.61686H20.3077V11.0015Z" fill="#FFC700"/>
</svg>
