<svg width="13" height="13" viewBox="0 0 13 13" fill="none" xmlns="http://www.w3.org/2000/svg">
<path d="M12.259 9.15119L9.09152 9.30528C8.83469 9.30528 8.59499 9.45937 8.45802 9.68195L6.81436 12.4043C6.47193 12.9693 5.63297 12.9008 5.39327 12.2673L4.26326 9.30528C4.17766 9.06558 3.95508 8.87724 3.69825 8.80876L0.616387 8.08965C-0.0342283 7.93556 -0.222565 7.11373 0.3082 6.70282L2.77369 4.71673C2.97915 4.54551 3.08188 4.28869 3.06476 4.03187L2.79082 0.864399C2.73945 0.213784 3.45855 -0.231375 4.00644 0.128176L6.66026 1.87457C6.88284 2.01154 7.15678 2.04578 7.39648 1.94305L10.3242 0.710306C10.9406 0.453484 11.5741 1.01849 11.4029 1.65198L10.564 4.71673C10.4955 4.97355 10.564 5.24749 10.7352 5.43583L12.8069 7.83283C13.2349 8.32936 12.9096 9.11694 12.2419 9.13406L12.259 9.15119Z" fill="#06C167"/>
</svg>
