<svg width="89" height="38" viewBox="0 0 89 38" fill="none" xmlns="http://www.w3.org/2000/svg">
<path d="M3.54021 25.782C5.49542 25.782 7.08042 24.197 7.08042 22.2418C7.08042 20.2866 5.49542 18.7016 3.54021 18.7016C1.58501 18.7016 0 20.2866 0 22.2418C0 24.197 1.58501 25.782 3.54021 25.782Z" fill="#4CAF50"/>
<path d="M89 35.3915C89 36.6448 87.9775 37.6673 86.7241 37.6673C85.4708 37.6673 84.4483 36.6448 84.4483 35.3915C84.4483 34.1381 85.4708 33.1156 86.7241 33.1156C87.9775 33.1156 89 34.1381 89 35.3915Z" fill="#FF0000"/>
<path d="M19.6691 30.8504C19.6691 32.1038 18.6466 33.1263 17.3932 33.1263C16.1399 33.1263 15.1174 32.1038 15.1174 30.8504C15.1174 29.5971 16.1399 28.5746 17.3932 28.5746C18.6466 28.5746 19.6691 29.5971 19.6691 30.8504Z" fill="#B617B9"/>
<path d="M74.8282 20.9771C75.8483 20.9771 76.6753 20.1502 76.6753 19.1301C76.6753 18.11 75.8483 17.283 74.8282 17.283C73.8081 17.283 72.9811 18.11 72.9811 19.1301C72.9811 20.1502 73.8081 20.9771 74.8282 20.9771Z" fill="#FF3D00"/>
<path d="M41.3611 3.54021C41.3611 5.49722 39.7779 7.08042 37.8209 7.08042C35.8639 7.08042 34.2807 5.49722 34.2807 3.54021C34.2807 1.5832 35.8639 0 37.8209 0C39.7779 0 41.3611 1.5832 41.3611 3.54021Z" fill="#FFCF5A"/>
</svg>
