<svg width="131" height="56" viewBox="0 0 131 56" fill="none" xmlns="http://www.w3.org/2000/svg">
<path d="M5.21087 37.9489C8.08876 37.9489 10.4217 35.6159 10.4217 32.738C10.4217 29.8601 8.08876 27.5271 5.21087 27.5271C2.33299 27.5271 0 29.8601 0 32.738C0 35.6159 2.33299 37.9489 5.21087 37.9489Z" fill="#4CAF50"/>
<path d="M131 52.0931C131 53.9379 129.495 55.443 127.65 55.443C125.805 55.443 124.3 53.9379 124.3 52.0931C124.3 50.2483 125.805 48.7433 127.65 48.7433C129.495 48.7433 131 50.2483 131 52.0931Z" fill="#FF0000"/>
<path d="M28.9511 45.4089C28.9511 47.2538 27.4461 48.7588 25.6013 48.7588C23.7564 48.7588 22.2514 47.2538 22.2514 45.4089C22.2514 43.5641 23.7564 42.0591 25.6013 42.0591C27.4461 42.0591 28.9511 43.5641 28.9511 45.4089Z" fill="#B617B9"/>
<path d="M110.14 30.8767C111.642 30.8767 112.859 29.6594 112.859 28.1579C112.859 26.6564 111.642 25.4392 110.14 25.4392C108.639 25.4392 107.422 26.6564 107.422 28.1579C107.422 29.6594 108.639 30.8767 110.14 30.8767Z" fill="#FF3D00"/>
<path d="M60.8799 5.21087C60.8799 8.09142 58.5495 10.4217 55.669 10.4217C52.7884 10.4217 50.4581 8.09142 50.4581 5.21087C50.4581 2.33033 52.7884 0 55.669 0C58.5495 0 60.8799 2.33033 60.8799 5.21087Z" fill="#FFCF5A"/>
</svg>
