<svg width="17" height="17" viewBox="0 0 17 17" fill="none" xmlns="http://www.w3.org/2000/svg">
<path d="M0.772727 0.772727L16.2273 16.2273" stroke="#7D7D7D" stroke-width="1.5" stroke-linecap="round" stroke-linejoin="round"/>
<path d="M4.41441 4.42201C2.05916 6.02362 0.772727 8.5 0.772727 8.5C0.772727 8.5 3.58264 13.9091 8.5 13.9091C10.0843 13.9091 11.4498 13.3476 12.5731 12.5865M7.72727 3.1359C7.97872 3.10646 8.23635 3.09091 8.5 3.09091C13.4173 3.09091 16.2273 8.5 16.2273 8.5C16.2273 8.5 15.6927 9.52904 14.6818 10.6895" stroke="#7D7D7D" stroke-width="1.5" stroke-linecap="round" stroke-linejoin="round"/>
<path d="M10.0455 10.2279C9.63529 10.5949 9.09376 10.8181 8.5 10.8181C7.21967 10.8181 6.18182 9.78029 6.18182 8.49995C6.18182 7.86346 6.43831 7.28693 6.85357 6.86802" stroke="#7D7D7D" stroke-width="1.5" stroke-linecap="round" stroke-linejoin="round"/>
</svg>
