<svg width="19" height="17" viewBox="0 0 19 17" fill="none" xmlns="http://www.w3.org/2000/svg">
<g filter="url(#filter0_d_345_616)">
<path d="M16.0524 7.5738L4.852 7.54903L8.27101 11.6741C8.43088 11.8673 8.50745 12.1161 8.48387 12.3658C8.4603 12.6155 8.33851 12.8456 8.14529 13.0054C7.95208 13.1653 7.70327 13.2419 7.4536 13.2183C7.20393 13.1947 6.97386 13.0729 6.81398 12.8797L2.1046 7.20297C2.07293 7.15783 2.04462 7.11042 2.01992 7.06113C2.02002 7.01391 2.02008 6.98558 1.95408 6.93821C1.91151 6.82984 1.88936 6.71452 1.88873 6.59809C1.88987 6.48166 1.91254 6.36644 1.95558 6.25826C1.95569 6.21104 1.95575 6.1827 2.02196 6.13563C2.04689 6.08645 2.0754 6.03916 2.10727 5.99416L6.84172 0.338303C6.93075 0.231895 7.04213 0.146409 7.16794 0.0879263C7.29375 0.0294443 7.4309 -0.00059911 7.56964 -6.70055e-05C7.7903 -1.03542e-05 8.00397 0.0773113 8.17357 0.218477C8.26902 0.297968 8.34785 0.395512 8.40555 0.505516C8.46325 0.61552 8.49867 0.735825 8.50981 0.859543C8.52094 0.98326 8.50755 1.10796 8.47041 1.22649C8.43328 1.34503 8.37313 1.45508 8.2934 1.55033L4.85618 5.66026L16.0566 5.68503C16.307 5.68558 16.547 5.78561 16.7237 5.96311C16.9004 6.14061 16.9994 6.38103 16.9989 6.6315C16.9983 6.88197 16.8983 7.12195 16.7208 7.29867C16.5433 7.47538 16.3029 7.57435 16.0524 7.5738Z" fill="black"/>
</g>
<defs>
<filter id="filter0_d_345_616" x="-6.11631e-05" y="0" width="18.8877" height="16.9999" filterUnits="userSpaceOnUse" color-interpolation-filters="sRGB">
<feFlood flood-opacity="0" result="BackgroundImageFix"/>
<feColorMatrix in="SourceAlpha" type="matrix" values="0 0 0 0 0 0 0 0 0 0 0 0 0 0 0 0 0 0 127 0" result="hardAlpha"/>
<feOffset dy="1.86273"/>
<feGaussianBlur stdDeviation="0.931366"/>
<feComposite in2="hardAlpha" operator="out"/>
<feColorMatrix type="matrix" values="0 0 0 0 0 0 0 0 0 0 0 0 0 0 0 0 0 0 0.25 0"/>
<feBlend mode="normal" in2="BackgroundImageFix" result="effect1_dropShadow_345_616"/>
<feBlend mode="normal" in="SourceGraphic" in2="effect1_dropShadow_345_616" result="shape"/>
</filter>
</defs>
</svg>
