<svg width="15" height="14" viewBox="0 0 15 14" fill="none" xmlns="http://www.w3.org/2000/svg">
<g filter="url(#filter0_d_298_25)">
<path d="M2.25166 6.01469L11.1467 5.99502L8.43139 9.27104C8.30442 9.42448 8.24361 9.62208 8.26233 9.82036C8.28106 10.0186 8.37778 10.2014 8.53122 10.3283C8.68467 10.4553 8.88226 10.5161 9.08054 10.4974C9.27882 10.4787 9.46154 10.3819 9.58851 10.2285L13.3286 5.7202C13.3537 5.68435 13.3762 5.6467 13.3958 5.60755C13.3957 5.57005 13.3957 5.54755 13.4481 5.50993C13.4819 5.42386 13.4995 5.33229 13.5 5.23982C13.4991 5.14735 13.4811 5.05585 13.4469 4.96993C13.4468 4.93243 13.4468 4.90993 13.3942 4.87255C13.3744 4.83349 13.3517 4.79594 13.3264 4.7602L9.56648 0.268497C9.49578 0.18399 9.40732 0.1161 9.30741 0.069655C9.20749 0.0232107 9.09857 -0.000649568 8.98839 -0.000226456C8.81315 -0.000181658 8.64346 0.0612248 8.50877 0.173334C8.43296 0.236464 8.37036 0.313929 8.32454 0.401291C8.27872 0.488653 8.25058 0.584195 8.24174 0.682448C8.2329 0.7807 8.24353 0.879732 8.27302 0.97387C8.30252 1.06801 8.35029 1.1554 8.41361 1.23105L11.1433 4.49503L2.24834 4.51469C2.04943 4.51513 1.85884 4.59457 1.7185 4.73554C1.57816 4.8765 1.49956 5.06744 1.5 5.26635C1.50044 5.46526 1.57988 5.65586 1.72085 5.7962C1.86181 5.93654 2.05275 6.01513 2.25166 6.01469Z" fill="black"/>
</g>
<defs>
<filter id="filter0_d_298_25" x="3.34113e-06" y="0" width="15" height="13.5005" filterUnits="userSpaceOnUse" color-interpolation-filters="sRGB">
<feFlood flood-opacity="0" result="BackgroundImageFix"/>
<feColorMatrix in="SourceAlpha" type="matrix" values="0 0 0 0 0 0 0 0 0 0 0 0 0 0 0 0 0 0 127 0" result="hardAlpha"/>
<feOffset dy="1.49853"/>
<feGaussianBlur stdDeviation="0.749266"/>
<feComposite in2="hardAlpha" operator="out"/>
<feColorMatrix type="matrix" values="0 0 0 0 0 0 0 0 0 0 0 0 0 0 0 0 0 0 0.25 0"/>
<feBlend mode="normal" in2="BackgroundImageFix" result="effect1_dropShadow_298_25"/>
<feBlend mode="normal" in="SourceGraphic" in2="effect1_dropShadow_298_25" result="shape"/>
</filter>
</defs>
</svg>
