<svg width="23" height="23" viewBox="0 0 23 23" fill="none" xmlns="http://www.w3.org/2000/svg">
<path fill-rule="evenodd" clip-rule="evenodd" d="M13.1459 15.1947C14.4967 15.1947 15.5963 16.2292 15.5963 17.5008V20.7713C15.5963 21.0445 15.8274 21.2635 16.1236 21.2699H18.262C19.9472 21.2699 21.3171 19.9877 21.3171 18.412V9.13649C21.3092 8.59425 21.0366 8.0839 20.5687 7.74474L13.1717 2.15434C12.1788 1.40903 10.7898 1.40903 9.79352 2.15647L2.44698 7.74261C1.96117 8.09241 1.68854 8.60275 1.68293 9.15456V18.412C1.68293 19.9877 3.05283 21.2699 4.738 21.2699H6.89664C7.20069 21.2699 7.44752 21.0413 7.44752 20.7606C7.44752 20.699 7.45537 20.6373 7.46883 20.5788V17.5008C7.46883 16.2366 8.56161 15.2032 9.90235 15.1947H13.1459ZM18.262 22.8647H16.1034C14.867 22.8371 13.9133 21.9174 13.9133 20.7713V17.5008C13.9133 17.1085 13.5689 16.7895 13.1459 16.7895H9.90796C9.49396 16.7916 9.15176 17.1117 9.15176 17.5008V20.7606C9.15176 20.8404 9.14054 20.9169 9.11698 20.9892C8.99581 22.0418 8.04664 22.8647 6.89664 22.8647H4.738C2.12498 22.8647 0 20.867 0 18.412V9.14712C0.0112195 8.09028 0.525074 7.12275 1.41254 6.48589L8.74449 0.909316C10.359 -0.302751 12.6085 -0.302751 14.2196 0.90719L21.6043 6.48908C22.4716 7.11531 22.9854 8.08071 23 9.12479V18.412C23 20.867 20.875 22.8647 18.262 22.8647Z" fill="black"/>
</svg>
