<svg width="20" height="17" viewBox="0 0 20 17" fill="none" xmlns="http://www.w3.org/2000/svg">
<path d="M18.2101 9.73744L3.80987 9.70559L8.20566 15.0092C8.41121 15.2576 8.50966 15.5775 8.47934 15.8985C8.44903 16.2195 8.29245 16.5153 8.04403 16.7209C7.79562 16.9264 7.47573 17.0248 7.15473 16.9945C6.83373 16.9642 6.53792 16.8076 6.33238 16.5592L0.277545 9.26067C0.236829 9.20264 0.200439 9.14168 0.168671 9.0783C0.168805 9.01759 0.168886 8.98117 0.0840271 8.92027C0.0293 8.78093 0.00081194 8.63267 2.62556e-07 8.48297C0.00147398 8.33328 0.0306174 8.18515 0.0859602 8.04606C0.0860945 7.98535 0.0861746 7.94892 0.171302 7.8884C0.20335 7.82516 0.240009 7.76437 0.280982 7.70651L6.36803 0.434807C6.4825 0.297999 6.6257 0.188091 6.78745 0.1129C6.94921 0.0377091 7.12555 -0.000917807 7.30392 -0.000234027C7.58762 -0.000160459 7.86234 0.0992519 8.08039 0.280748C8.20311 0.382949 8.30446 0.50836 8.37864 0.649791C8.45282 0.791224 8.49837 0.945898 8.51268 1.10496C8.52699 1.26402 8.50978 1.42435 8.46204 1.57675C8.4143 1.72915 8.33695 1.87064 8.23445 1.9931L3.81524 7.27722L18.2155 7.30906C18.5375 7.30977 18.8461 7.43838 19.0733 7.66659C19.3005 7.89479 19.4277 8.20391 19.427 8.52593C19.4263 8.84796 19.2977 9.15651 19.0695 9.38371C18.8413 9.61091 18.5322 9.73815 18.2101 9.73744Z" fill="black"/>
</svg>
