<svg width="22" height="20" viewBox="0 0 22 20" fill="none" xmlns="http://www.w3.org/2000/svg">
<path d="M20.622 11.0275L4.31445 10.9915L9.29245 16.9975C9.52522 17.2788 9.6367 17.6411 9.60237 18.0046C9.56805 18.3681 9.39072 18.7031 9.10941 18.9359C8.82809 19.1687 8.46584 19.2801 8.10232 19.2458C7.73881 19.2115 7.40382 19.0342 7.17105 18.7528L0.314297 10.4876C0.268188 10.4219 0.226979 10.3529 0.191003 10.2811C0.191155 10.2124 0.191247 10.1711 0.0951486 10.1022C0.0331733 9.94436 0.000912169 9.77647 -7.01167e-06 9.60694C0.00166189 9.43742 0.0346652 9.26967 0.0973378 9.11215C0.0974898 9.04341 0.0975806 9.00215 0.193983 8.93362C0.230275 8.862 0.27179 8.79316 0.318189 8.72764L7.21143 0.492844C7.34106 0.337916 7.50322 0.21345 7.6864 0.128301C7.86958 0.0431519 8.06928 -0.000591356 8.27128 0.00018373C8.59255 0.000266153 8.90365 0.112846 9.15058 0.31838C9.28955 0.434117 9.40433 0.576138 9.48833 0.736301C9.57234 0.896465 9.62392 1.07162 9.64013 1.25176C9.65633 1.43189 9.63685 1.61344 9.58278 1.78603C9.52871 1.95861 9.44113 2.11884 9.32504 2.25752L4.32053 8.24149L20.628 8.27755C20.9927 8.27836 21.3421 8.424 21.5994 8.68243C21.8567 8.94086 22.0008 9.29092 22 9.65559C21.9992 10.0203 21.8535 10.3697 21.5951 10.627C21.3367 10.8843 20.9866 11.0284 20.622 11.0275Z" fill="black"/>
</svg>
