<svg width="25" height="27" viewBox="0 0 25 27" fill="none" xmlns="http://www.w3.org/2000/svg">
<path fill-rule="evenodd" clip-rule="evenodd" d="M12.4007 0C15.7148 0 18.4525 2.5951 18.79 5.91414L18.8842 5.91528C20.7226 5.91528 22.9578 7.17005 23.7122 10.6894L24.7126 18.6467C25.0714 21.2149 24.6225 23.2749 23.3762 24.7525C22.1363 26.2223 20.1736 27.0001 17.7 27.0001H7.11591C4.39888 27.0001 2.50597 26.3161 1.32812 24.9102C0.145209 23.5003 -0.250364 21.3856 0.152816 18.6259L1.13668 10.7741C1.78329 7.17396 4.14785 5.91528 5.97864 5.91528C6.13669 4.41747 6.79387 2.99256 7.83644 1.92451C9.03457 0.701005 10.6866 0 12.3741 0H12.4007ZM18.8842 7.86975H5.97864C5.41951 7.86975 3.55068 8.10169 3.01438 11.0777L2.03559 18.8956C1.71736 21.0885 1.96332 22.6755 2.76841 23.6358C3.56336 24.5844 4.9859 25.0457 7.11591 25.0457H17.7C19.0287 25.0457 20.843 24.7733 21.9385 23.473C22.8082 22.4423 23.1074 20.9074 22.8285 18.9099L21.8409 11.0243C21.4199 9.08153 20.3093 7.86975 18.8842 7.86975ZM16.0985 11.4974C16.6233 11.4974 17.0785 11.9352 17.0785 12.4746C17.0785 13.0141 16.6817 13.4519 16.1568 13.4519H16.0985C15.5736 13.4519 15.1476 13.0141 15.1476 12.4746C15.1476 11.9352 15.5736 11.4974 16.0985 11.4974ZM8.7067 11.4974C9.23159 11.4974 9.68675 11.9352 9.68675 12.4746C9.68675 13.0141 9.28864 13.4519 8.76375 13.4519H8.7067C8.1818 13.4519 7.7558 13.0141 7.7558 12.4746C7.7558 11.9352 8.1818 11.4974 8.7067 11.4974ZM12.3969 1.95447H12.3779C11.1849 1.95447 10.0222 2.4483 9.1791 3.30958C8.4923 4.01223 8.04312 4.93595 7.89782 5.91467L16.8734 5.91504C16.5476 3.67621 14.6637 1.95447 12.3969 1.95447Z" fill="black"/>
</svg>
