<svg width="16" height="17" viewBox="0 0 16 17" fill="none" xmlns="http://www.w3.org/2000/svg">
<path d="M14.8652 3.0054L13.4419 6.6931C13.3287 7.0004 13.361 7.34006 13.5551 7.61502L15.8195 10.8498C16.2886 11.5291 15.7872 12.4511 14.9623 12.4025L11.0158 12.1923C10.6923 12.1761 10.3688 12.3217 10.1747 12.5805L7.79716 15.7344C7.29576 16.3975 6.26062 16.1873 6.05036 15.3948L5.03139 11.5777C4.95052 11.2542 4.70791 11.0116 4.4006 10.8984L0.664388 9.62061C-0.111968 9.34565 -0.241363 8.3105 0.454123 7.85763L3.76981 5.72265C4.04477 5.54474 4.22268 5.23743 4.22268 4.91395L4.28738 0.967469C4.28738 0.14259 5.25783 -0.29411 5.88862 0.223461L8.94552 2.71427C9.2043 2.92453 9.54396 2.98923 9.85126 2.89218L13.6198 1.74382C14.4124 1.50121 15.124 2.27757 14.8329 3.03775L14.8652 3.0054Z" fill="#FF3D00"/>
</svg>
