<svg width="25" height="23" viewBox="0 0 25 23" fill="none" xmlns="http://www.w3.org/2000/svg">
<path d="M24.9867 21.7969L18.0071 15.3723C19.6843 13.5188 20.5207 11.1415 20.3423 8.73488C20.1638 6.32826 18.9842 4.07762 17.0489 2.45115C15.1136 0.824687 12.5716 -0.0523748 9.95164 0.00242129C7.3317 0.0572174 4.83557 1.03965 2.98252 2.74535C1.12947 4.45105 0.0621604 6.74868 0.00263047 9.16028C-0.0568994 11.5719 0.895931 13.9118 2.66291 15.6932C4.42988 17.4746 6.87495 18.5604 9.48948 18.7247C12.104 18.8889 14.6867 18.119 16.7003 16.5752L23.6799 22.9998L24.9867 21.7969ZM1.88147 9.38831C1.88147 7.87401 2.36931 6.39371 3.28329 5.13461C4.19727 3.87552 5.49635 2.89417 7.01625 2.31467C8.53614 1.73517 10.2086 1.58355 11.8221 1.87897C13.4356 2.1744 14.9177 2.90361 16.081 3.97438C17.2443 5.04516 18.0365 6.40941 18.3574 7.89461C18.6784 9.37982 18.5137 10.9193 17.8841 12.3183C17.2545 13.7173 16.1884 14.9131 14.8205 15.7544C13.4527 16.5957 11.8445 17.0448 10.1994 17.0448C7.99407 17.0425 5.87981 16.2351 4.32043 14.7998C2.76105 13.3644 1.88392 11.4182 1.88147 9.38831Z" fill="black"/>
</svg>
